<?xml version="1.0" encoding="UTF-8"?>
<svg width="481px" height="288px" viewBox="0 0 481 288" version="1.1" xmlns="http://www.w3.org/2000/svg" xmlns:xlink="http://www.w3.org/1999/xlink">
    <!-- Generator: Sketch 43.1 (39012) - http://www.bohemiancoding.com/sketch -->
    <title>Logo Rosa</title>
    <desc>Created with Sketch.</desc>
    <defs></defs>
    <g id="Symbols" stroke="none" stroke-width="1" fill="none" fill-rule="evenodd">
        <g id="Logo-Rosa">
            <g id="Ícone-Rosa" transform="translate(0.000000, 85.000000)">
                <g id="Ícone">
                    <path d="M0.428268723,51.6181688 C0.428268723,45.9981134 4.93946842,41.5255709 10.6244615,41.5255709 L66.3875316,41.5255709 C72.072929,41.5255709 76.8481615,45.9981134 76.8481615,51.6181688 L76.8481615,79.5297918 L76.8481615,113.077458 L69.5316643,106.541311 C69.192829,106.235547 68.8131556,105.955763 68.536184,105.703158 C65.1951387,102.659911 64.340368,102.173487 59.9824124,102.262218 C59.3880355,102.274609 58.6800396,102.279005 57.8175865,102.279005 L12.6620757,101.12174 C6.97708262,101.12174 3.05829623,96.6554061 3.05829623,91.0357504" id="Path" fill="#E91E63"></path>
                    <path d="M128.475265,12.1517614 C128.475265,6.75562722 124.143806,2.46128531 118.685321,2.46128531 L65.1440326,2.46128531 C59.6851598,2.46128531 55.1001881,6.75562722 55.1001881,12.1517614 L55.1001881,38.9512949 L55.1001881,71.1623131 L62.1251723,64.8865872 C62.4505073,64.5930062 62.8150533,64.32437 63.0809894,64.0818298 C66.2889167,61.1598352 67.1096305,60.692792 71.293951,60.777988 C71.8646461,60.7898848 72.5444331,60.7941062 73.3725233,60.7941062 L118.685321,60.7941062 C124.143806,60.7941062 128.475265,56.4237786 128.475265,51.0280282 L128.475265,12.1517614 Z" id="Path" fill="#E91E63"></path>
                    <path d="M99.3402048,28.1773983 C99.3402048,32.056636 96.4832196,34.4158559 94.3970424,36.1471734 C93.6069643,36.8029434 92.1363628,37.9994856 92.1402882,38.4464251 C92.1545624,40.1996134 90.7285679,41.5996947 88.9546392,41.5996947 L88.927875,41.5996947 C87.1664363,41.5996947 85.7311634,40.2426494 85.7168892,38.49828 C85.6886976,35.059985 88.2270108,33.0009589 90.2667968,31.3080916 C91.8672938,29.9796194 92.9168058,29.0448208 92.9168058,28.1893919 C92.9168058,26.4577217 91.4915249,25.0488215 89.7397213,25.0488215 C87.9872039,25.0488215 86.5615662,26.4577217 86.5615662,28.1893919 C86.5615662,29.9429329 85.1237954,31.3641795 83.3498667,31.3641795 C81.575938,31.3641795 80.1381672,29.9429329 80.1381672,28.1893919 C80.1381672,22.9566365 84.4450562,18.6992463 89.7390076,18.6992463 C95.0333158,18.6988935 99.3402048,22.9442901 99.3402048,28.1773983 Z M89.016732,44.5303764 C87.2428033,44.5303764 85.8760468,45.951623 85.8760468,47.705164 L85.8760468,47.729504 C85.8760468,49.4830451 87.2431602,50.892298 89.016732,50.892298 C90.7903039,50.892298 92.2284315,49.458705 92.2284315,47.705164 C92.2284315,45.951623 90.7906607,44.5303764 89.016732,44.5303764 Z M24.2799326,66.645594 C22.5060039,66.645594 21.0682331,68.0668406 21.0682331,69.8203816 C21.0682331,71.5739226 22.5060039,72.9951692 24.2799326,72.9951692 L24.5475742,72.9951692 C26.3215029,72.9951692 27.7592737,71.5739226 27.7592737,69.8203816 C27.7592737,68.0668406 26.3215029,66.645594 24.5475742,66.645594 L24.2799326,66.645594 Z M35.4420158,66.645594 C33.6680871,66.645594 32.2303163,68.0668406 32.2303163,69.8203816 C32.2303163,71.5739226 33.6680871,72.9951692 35.4420158,72.9951692 L35.7093005,72.9951692 C37.4832292,72.9951692 38.921,71.5739226 38.921,69.8203816 C38.921,68.0668406 37.4832292,66.645594 35.7093005,66.645594 L35.4420158,66.645594 Z M129.769273,15.9375338 L129.769273,51.6718847 C129.769273,60.1326937 122.906228,66.9983482 114.347049,66.9983482 L72.6959457,66.9983482 C71.8816015,66.9983482 71.21107,66.9937624 70.6500931,66.9821215 C70.0623521,66.9701279 69.400742,66.9655421 69.1427355,66.9937624 C68.8740233,67.1701395 68.2152681,67.7666468 67.5804221,68.3448109 C67.328839,68.5737484 67.0440683,68.8256148 66.7368157,69.1028796 L54.9527334,79.7200748 C54.012776,80.5677431 52.6221101,80.7871562 51.4580475,80.2798957 C50.2939848,79.7722825 49.4767857,78.6328865 49.4767857,77.3753178 L49.4767857,43.7165725 L15.8324492,43.7165725 C10.8143471,43.7165725 6.65412572,47.7813589 6.65412572,52.7410826 L6.65412572,88.4754335 C6.65412572,93.43551 10.814704,97.3352074 15.8324492,97.3352074 L62.3571282,97.3352074 C63.1582688,97.3352074 63.9076653,97.698897 64.4993317,98.2329668 L74.0998153,106.982681 L74.0998153,64.7839197 C74.0998153,63.0303787 75.5843341,63.1490858 77.3582628,63.1490858 C79.1321915,63.1490858 80.5232143,63.0303787 80.5232143,64.7839197 L80.5232143,114.178514 C80.5232143,115.436083 79.795229,116.558546 78.6308095,117.06616 C78.2143592,117.247828 77.7961245,117.319437 77.3582628,117.319437 C76.5717533,117.319437 75.7959494,117.000195 75.1925068,116.455542 L61.1120593,103.68443 L15.8324492,103.68443 C7.27291315,103.68443 0.230726714,96.9362425 0.230726714,88.4750808 L0.230726714,52.7410826 C0.230726714,44.2802737 7.27291315,37.3669973 15.8324492,37.3669973 L49.4767857,37.3669973 L49.4767857,15.9375338 C49.4767857,7.47637216 56.5728574,0.680562939 65.1323934,0.680562939 L114.347406,0.680562939 C122.906228,0.680562939 129.769273,7.47637216 129.769273,15.9375338 Z M123.345874,15.9375338 C123.345874,10.9774574 119.364437,7.03013812 114.347049,7.03013812 L65.1323934,7.03013812 C60.1146482,7.03013812 55.9001847,10.9774574 55.9001847,15.9375338 L55.9001847,40.5714163 L55.9001847,70.1794854 L62.357485,64.4108963 C62.6565299,64.1410394 62.9916172,63.8941115 63.2360633,63.6711708 C66.1847603,60.9853005 66.9391528,60.5559987 70.7853414,60.6343101 C71.309919,60.6452455 71.9347729,60.6491258 72.6959457,60.6491258 L114.347049,60.6491258 C119.364437,60.6491258 123.345874,56.6319612 123.345874,51.6722375 L123.345874,15.9375338 Z" id="Shape" fill="#FFFFFF" fill-rule="nonzero"></path>
                </g>
            </g>
            <path d="M217.36,82.656 C217.552001,81.3119933 218.079996,80.3040034 218.944,79.632 C219.808004,78.9599966 220.815994,78.624 221.968,78.624 C223.120006,78.624 224.175995,78.9119971 225.136,79.488 C226.096005,80.0640029 226.767998,80.9279942 227.152,82.08 C227.152,87.6480278 227.775994,94.0799635 229.024,101.376 C230.272006,108.672036 231.663992,116.35196 233.2,124.416 C234.736008,132.48004 236.223993,140.639959 237.664,148.896 C239.104007,157.152041 240.159997,165.023963 240.832,172.512 C241.504003,180.000037 241.648002,186.815969 241.264,192.96 C240.879998,199.104031 239.440012,203.999982 236.944,207.648 C234.063986,212.064022 230.368023,215.23199 225.856,217.152 C221.343977,219.07201 216.448026,220.08 211.168,220.176 C205.887974,220.272 200.560027,219.696006 195.184,218.448 C189.807973,217.199994 184.720024,215.664009 179.92,213.84 C175.119976,212.015991 170.896018,210.048011 167.248,207.936 C163.599982,205.823989 161.008008,204.000008 159.472,202.464 C158.511995,201.695996 158.032,200.640007 158.032,199.296 C158.032,197.951993 158.271998,196.752005 158.752,195.696 C159.232002,194.639995 159.903996,193.920002 160.768,193.536 C161.632004,193.151998 162.543995,193.343996 163.504,194.112 C163.888002,194.688003 165.279988,195.791992 167.68,197.424 C170.080012,199.056008 172.959983,200.735991 176.32,202.464 C179.680017,204.192009 183.471979,205.823992 187.696,207.36 C191.920021,208.896008 196.191978,209.807999 200.512,210.096 C204.832022,210.384001 209.00798,209.808007 213.04,208.368 C217.07202,206.927993 220.623985,204.19202 223.696,200.16 C225.808011,197.471987 227.103998,193.584025 227.584,188.496 C228.064002,183.407975 228.064002,177.504034 227.584,170.784 C227.103998,164.063966 226.336005,156.864038 225.28,149.184 C224.223995,141.503962 223.120006,133.776039 221.968,126 C220.815994,118.223961 219.760005,110.592037 218.8,103.104 C217.839995,95.6159626 217.36,88.8000307 217.36,82.656 Z M303.472,156.672 C304.240004,162.816031 304.959997,168.623973 305.632,174.096 C306.304003,179.568027 307.023996,184.463978 307.792,188.784 C308.560004,193.104022 309.279997,196.607987 309.952,199.296 C310.624003,201.984013 311.247997,203.615997 311.824,204.192 C312.592004,205.152005 312.928,206.159995 312.832,207.216 C312.736,208.272005 312.352003,209.087997 311.68,209.664 C311.007997,210.240003 310.144005,210.528 309.088,210.528 C308.031995,210.528 307.024005,210.048005 306.064,209.088 C302.991985,206.015985 300.736007,201.984025 299.296,196.992 C297.855993,191.999975 296.656005,186.816027 295.696,181.44 C292.431984,187.584031 288.736021,192.62398 284.608,196.56 C280.479979,200.49602 274.864036,202.272002 267.76,201.888 C265.83999,201.503998 263.776011,200.640007 261.568,199.296 C259.359989,197.951993 257.680006,196.512008 256.528,194.976 C253.263984,190.367977 252.255994,185.232028 253.504,179.568 C254.752006,173.903972 257.151982,168.576025 260.704,163.584 C264.256018,158.591975 268.575975,154.416017 273.664,151.056 C278.752025,147.695983 283.503978,145.824002 287.92,145.44 C287.727999,143.711991 287.68,141.984009 287.776,140.256 C287.872,138.527991 288.111998,136.800009 288.496,135.072 C288.688001,133.919994 289.263995,133.152002 290.224,132.768 C291.184005,132.383998 292.287994,132.24 293.536,132.336 C294.784006,132.432 296.031994,132.719998 297.28,133.2 C298.528006,133.680002 299.439997,134.303996 300.016,135.072 C301.360007,137.952014 302.319997,141.263981 302.896,145.008 C303.472003,148.752019 303.664001,152.63998 303.472,156.672 Z M265.456,191.808 C267.760012,193.536009 270.159988,193.920005 272.656,192.96 C275.152012,191.999995 277.503989,190.080014 279.712,187.2 C281.920011,184.319986 283.935991,180.624023 285.76,176.112 C287.584009,171.599977 288.879996,166.656027 289.648,161.28 C284.079972,160.127994 279.32802,160.799988 275.392,163.296 C271.45598,165.792012 268.384011,168.863982 266.176,172.512 C263.967989,176.160018 262.768001,179.855981 262.576,183.6 C262.383999,187.344019 263.343989,190.079991 265.456,191.808 Z M356.752,149.76 C354.447988,149.952001 353.104002,149.232008 352.72,147.6 C352.335998,145.967992 352.815993,144.480007 354.16,143.136 C352.431991,141.407991 350.224013,140.783998 347.536,141.264 C344.847987,141.744002 342.256012,142.703993 339.76,144.144 C337.263988,145.584007 335.152009,147.31199 333.424,149.328 C331.695991,151.34401 330.927999,153.023993 331.12,154.368 C330.927999,156.096009 331.79199,157.91999 333.712,159.84 C335.63201,161.76001 338.127985,163.775989 341.2,165.888 C344.272015,168.000011 347.583982,170.111989 351.136,172.224 C354.688018,174.336011 357.999985,176.39999 361.072,178.416 C364.144015,180.43201 366.68799,182.39999 368.704,184.32 C370.72001,186.24001 371.632001,188.063991 371.44,189.792 C371.247999,190.176002 371.2,190.607998 371.296,191.088 C371.392,191.568002 371.344001,192.095997 371.152,192.672 C370.575997,195.360013 368.944013,197.903988 366.256,200.304 C363.567987,202.704012 360.352019,204.719992 356.608,206.352 C352.863981,207.984008 348.832022,209.135997 344.512,209.808 C340.191978,210.480003 336.208018,210.432004 332.56,209.664 C328.911982,208.895996 325.792013,207.312012 323.2,204.912 C320.607987,202.511988 319.216001,199.008023 319.024,194.4 C319.024,193.055993 319.407996,192.048003 320.176,191.376 C320.944004,190.703997 321.759996,190.32 322.624,190.224 C323.488004,190.128 324.351996,190.367997 325.216,190.944 C326.080004,191.520003 326.512,192.479993 326.512,193.824 C326.704001,197.85602 328.335985,200.495994 331.408,201.744 C334.480015,202.992006 337.887981,203.328003 341.632,202.752 C345.376019,202.175997 348.831984,200.832011 352,198.72 C355.168016,196.607989 357.039997,194.208013 357.616,191.52 C357.808001,190.367994 356.89601,189.024008 354.88,187.488 C352.86399,185.951992 350.368015,184.320009 347.392,182.592 C344.415985,180.863991 341.152018,178.99201 337.6,176.976 C334.047982,174.95999 330.784015,172.704012 327.808,170.208 C324.831985,167.711988 322.528008,165.024014 320.896,162.144 C319.263992,159.263986 318.735997,156.096017 319.312,152.64 C320.080004,148.799981 321.807987,145.584013 324.496,142.992 C327.184013,140.399987 330.303982,138.384007 333.856,136.944 C337.408018,135.503993 341.103981,134.688001 344.944,134.496 C348.784019,134.303999 352.191985,134.639996 355.168,135.504 C358.144015,136.368004 360.447992,137.75999 362.08,139.68 C363.712008,141.60001 364.048005,143.999986 363.088,146.88 C362.703998,147.456003 362.128004,147.935998 361.36,148.32 C360.591996,148.704002 359.056012,149.183997 356.752,149.76 Z M371.44,34.56 C371.44,33.4079942 371.823996,32.4000043 372.592,31.536 C373.360004,30.6719957 374.319994,30.0960014 375.472,29.808 C376.624006,29.5199986 377.775994,29.471999 378.928,29.664 C380.080006,29.856001 381.039996,30.3359962 381.808,31.104 C384.112012,43.0080595 385.935993,54.4319453 387.28,65.376 C388.624007,76.3200547 389.727996,87.2639453 390.592,98.208 C391.456004,109.152055 392.271996,120.287943 393.04,131.616 C393.808004,142.944057 394.671995,154.751939 395.632,167.04 C398.896016,159.935964 402.447981,153.36003 406.288,147.312 C410.128019,141.26397 413.871982,135.936023 417.52,131.328 C421.168018,126.719977 424.479985,122.832016 427.456,119.664 C430.432015,116.495984 432.783991,114.048009 434.512,112.32 C437.776016,111.935998 439.120003,113.279985 438.544,116.352 C436.431989,120.000018 433.648017,124.703971 430.192,130.464 C426.735983,136.224029 423.280017,142.07997 419.824,148.032 C416.367983,153.98403 413.296013,159.599974 410.608,164.88 C407.919987,170.160026 406.288003,174.143987 405.712,176.832 C406.288003,178.176007 408.255983,179.711991 411.616,181.44 C414.976017,183.168009 419.151975,184.943991 424.144,186.768 C429.136025,188.592009 434.60797,190.367991 440.56,192.096 C446.51203,193.824009 452.271972,195.359993 457.84,196.704 C463.408028,198.048007 468.495977,199.103996 473.104,199.872 C477.712023,200.640004 481.263988,201.024 483.76,201.024 C486.064012,201.600003 487.072001,202.943989 486.784,205.056 C486.495999,207.168011 485.008013,208.511997 482.32,209.088 C478.671982,208.895999 474.352025,208.512003 469.36,207.936 C464.367975,207.359997 459.136027,206.640004 453.664,205.776 C448.191973,204.911996 442.624028,203.856006 436.96,202.608 C431.295972,201.359994 426.016024,200.112006 421.12,198.864 C416.223976,197.615994 411.904019,196.272007 408.16,194.832 C404.415981,193.391993 401.680009,192.000007 399.952,190.656 C398.03199,197.952036 396.688004,203.999976 395.92,208.8 C395.151996,213.600024 393.904009,218.303977 392.176,222.912 C391.215995,224.83201 390.112006,225.552002 388.864,225.072 C387.615994,224.591998 386.608004,223.488009 385.84,221.76 C384.879995,216.959976 384.448,212.016025 384.544,206.928 C384.64,201.839975 384.400003,196.704026 383.824,191.52 C383.247997,180.383944 382.672003,169.056058 382.096,157.536 C381.519997,146.015942 380.800004,133.920063 379.936,121.248 C379.071996,108.575937 377.920007,95.136071 376.48,80.928 C375.039993,66.719929 373.36001,51.2640835 371.44,34.56 Z" id="Jask" fill="#FFFFFF"></path>
        </g>
    </g>
</svg>