<?xml version="1.0" encoding="UTF-8"?>
<svg width="118px" height="118px" viewBox="0 0 118 118" version="1.1" xmlns="http://www.w3.org/2000/svg" xmlns:xlink="http://www.w3.org/1999/xlink">
    <!-- Generator: Sketch 43.1 (39012) - http://www.bohemiancoding.com/sketch -->
    <title>Carinha tirando dúvidas</title>
    <desc>Created with Sketch.</desc>
    <defs></defs>
    <g id="Layouts" stroke="none" stroke-width="1" fill="none" fill-rule="evenodd">
        <g id="3---Index" transform="translate(-41.000000, -420.000000)">
            <g id="Informações" transform="translate(17.000000, 349.000000)">
                <g id="card-3" transform="translate(0.000000, 59.000000)">
                    <g id="Carinha-tirando-dúvidas" transform="translate(24.000000, 12.000000)">
                        <g id="Carinha-com-dúvida" transform="translate(43.000000, 38.000000)">
                            <path d="M30.4277333,50.2406723 C30.4277333,55.6043697 26.0835407,59.9528571 20.724637,59.9528571 L13.1156889,59.9528571 C7.75678519,59.9528571 3.41259259,55.6043697 3.41259259,50.2406723 L3.41259259,49.5536975 C3.41259259,44.19 7.75678519,39.8412605 13.1156889,39.8412605 L20.724637,39.8412605 C26.0835407,39.8412605 30.4277333,44.19 30.4277333,49.5536975 L30.4277333,50.2406723" id="Fill-65" fill="#247D99"></path>
                            <path d="M20.724637,39.8412605 L16.920163,39.8412605 L16.920163,59.9528571 L20.724637,59.9528571 C26.0835407,59.9528571 30.4277333,55.6043697 30.4277333,50.2406723 L30.4277333,49.5536975 C30.4277333,44.19 26.0835407,39.8412605 20.724637,39.8412605" id="Fill-66" fill="#226E85"></path>
                            <path d="M13.1156889,39.8412605 C12.8925481,39.8412605 12.6719259,39.8515966 12.452563,39.8664706 C12.4296444,40.0752101 12.4140296,40.292521 12.4142815,40.5277311 C12.4162963,43.5395798 16.9249481,46.522437 16.9249481,46.522437 C16.9249481,46.522437 21.4283111,43.5330252 21.4262963,40.5209244 C21.4260444,40.2884874 21.4104296,40.0734454 21.387763,39.8664706 C21.1681481,39.8515966 20.9475259,39.8412605 20.724637,39.8412605 L13.1156889,39.8412605" id="Fill-67" fill="#AF8561"></path>
                            <path d="M20.7616593,39.7182353 C20.7616593,41.8421849 19.041763,43.5637815 16.920163,43.5637815 C14.798563,43.5637815 13.0786667,41.8421849 13.0786667,39.7182353 L13.0786667,33.7154622 C13.0786667,31.5915126 14.798563,29.8701681 16.920163,29.8701681 C19.041763,29.8701681 20.7616593,31.5915126 20.7616593,33.7154622 L20.7616593,39.7182353" id="Fill-68" fill="#BD8D66"></path>
                            <path d="M32.3334963,16.1828571 C32.3334963,25.1203361 25.0952741,32.3659664 16.1666222,32.3659664 C7.23797037,32.3659664 0,25.1203361 0,16.1828571 C0,7.24537815 7.23797037,0 16.1666222,0 C25.0952741,0 32.3334963,7.24537815 32.3334963,16.1828571" id="Fill-69" fill="#131615"></path>
                            <path d="M16.920163,31.1934454 C14.798563,31.1934454 13.0786667,32.9147899 13.0786667,35.0387395 L13.0786667,38.2956303 C14.1860593,38.6863866 15.5042519,38.9135294 16.920163,38.9135294 C18.3360741,38.9135294 19.6545185,38.6863866 20.7616593,38.2956303 L20.7616593,35.0387395 C20.7616593,32.9147899 19.041763,31.1934454 16.920163,31.1934454" id="Fill-70" fill="#977455"></path>
                            <path d="M29.9801926,23.5958824 C29.9801926,31.4808403 23.5939852,37.8731092 15.7168148,37.8731092 C7.83939259,37.8731092 1.45368889,31.4808403 1.45368889,23.5958824 C1.45368889,15.7106723 7.83939259,9.31840336 15.7168148,9.31840336 C23.5939852,9.31840336 29.9801926,15.7106723 29.9801926,23.5958824" id="Fill-71" fill="#BD8D66"></path>
                            <path d="M14.5751704,13.6157143 C24.9741333,13.2804202 29.9801926,20.787479 30.4098519,23.8431933 C31.6366222,21.5626891 32.3334963,18.9544538 32.3334963,16.1828571 C32.3334963,7.24537815 25.0952741,0 16.1666222,0 C7.23797037,0 0,7.24537815 0,16.1828571 C0,18.3234454 0.715007407,21.0620168 1.46905185,22.9321008 C2.84365926,18.9236975 6.02026667,13.8917647 14.5751704,13.6157143" id="Fill-72" fill="#131615"></path>
                            <path d="M33.9884148,23.5958824 C33.9884148,25.2461345 32.651837,26.5840336 31.002963,26.5840336 C29.3540889,26.5840336 28.0180148,25.2461345 28.0180148,23.5958824 C28.0180148,21.9453782 29.3540889,20.607479 31.002963,20.607479 C32.651837,20.607479 33.9884148,21.9453782 33.9884148,23.5958824" id="Fill-73" fill="#BD8D66"></path>
                            <path d="M19.3132593,28.3071429 C19.3132593,30.6630252 17.4052296,32.5731933 15.0511704,32.5731933 C12.6976148,32.5731933 10.7890815,30.6630252 10.7890815,28.3071429" id="Stroke-74" stroke="#181B1A" stroke-width="3" stroke-linecap="round" stroke-linejoin="round"></path>
                            <path d="M8.1192,22.0321008 C7.23671111,22.0321008 6.5212,22.7480672 6.5212,23.6316807 C6.5212,24.515042 7.23671111,25.2310084 8.1192,25.2310084 C9.00168889,25.2310084 9.7172,24.515042 9.7172,23.6316807 C9.7172,22.7480672 9.00168889,22.0321008 8.1192,22.0321008" id="Fill-75" fill="#181B1A"></path>
                            <path d="M21.1563111,22.0321008 C20.2738222,22.0321008 19.5583111,22.7480672 19.5583111,23.6316807 C19.5583111,24.515042 20.2738222,25.2310084 21.1563111,25.2310084 C22.0385481,25.2310084 22.7540593,24.515042 22.7540593,23.6316807 C22.7540593,22.7480672 22.0385481,22.0321008 21.1563111,22.0321008" id="Fill-76" fill="#181B1A"></path>
                        </g>
                        <g id="Information">
                            <path d="M60.5177843,117.874823 C45.6285569,117.874823 33.4849651,117.245567 33.4849651,116.474468 C33.4849651,115.703014 45.6285569,115.073936 60.5177843,115.073936 C75.4068344,115.073936 87.5504262,115.703014 87.5504262,116.474468 C87.5504262,117.245567 75.4068344,117.874823 60.5177843,117.874823" id="Fill-3" fill="#528FA4"></path>
                            <g id="Group-2" transform="translate(42.000000, 0.000000)">
                                <path d="M17.1549338,9.70266495 C13.0745304,9.70266495 9.9657234,13.1624221 9.9657234,17.166398 C9.9657234,18.3819579 10.124705,19.6456587 10.7730639,20.7002472 C11.2304186,21.4441758 11.8573036,21.960187 12.4295622,22.5999355 C13.3638619,23.6451214 13.7119639,24.6812809 13.7119639,26.0841393 C13.7119639,26.6012787 14.0999997,27.0902106 14.638729,27.0902106 L19.6711386,27.0902106 C20.2094911,27.0902106 20.5979036,26.6012787 20.5979036,26.0841393 C20.5979036,24.6812809 20.9460056,23.6451214 21.8806821,22.5999355 C22.4525639,21.960187 23.0794489,21.4445519 23.5368037,20.7002472 C24.1855392,19.6456587 24.3445209,18.3819579 24.3445209,17.166398 C24.3445209,13.1624221 21.2357139,9.70266495 17.1549338,9.70266495 Z M17.1549338,9.15694176 C21.4278481,9.15694176 24.8911616,12.7426929 24.8911616,17.166398 C24.8911616,22.9937137 21.1449211,21.8026005 21.1449211,26.0841393 C21.1449211,26.9378895 20.4818696,27.6359338 19.6711386,27.6359338 L14.638729,27.6359338 C13.8283747,27.6359338 13.1653232,26.9378895 13.1653232,26.0841393 C13.1653232,21.8026005 9.41870598,22.9937137 9.41870598,17.166398 C9.41870598,12.7426929 12.8823962,9.15694176 17.1549338,9.15694176 L17.1549338,9.15694176 Z" id="Fill-4" fill="#E6E4DF"></path>
                                <path d="M14.3912149,27.9781861 L19.8794723,27.9781861 C20.2415135,27.9781861 20.5372495,28.2738018 20.5372495,28.6352353 C20.5372495,28.9966688 20.2415135,29.2922845 19.8794723,29.2922845 L14.3912149,29.2922845 C14.0291738,29.2922845 13.7334378,28.9966688 13.7334378,28.6352353 C13.7334378,28.2738018 14.0291738,27.9781861 14.3912149,27.9781861" id="Fill-5" fill="#E6E4DF"></path>
                                <path d="M14.3912149,29.6157318 L19.8794723,29.6157318 C20.2415135,29.6157318 20.5372495,29.9113475 20.5372495,30.272781 C20.5372495,30.6342145 20.2415135,30.9298302 19.8794723,30.9298302 L14.3912149,30.9298302 C14.0291738,30.9298302 13.7334378,30.6342145 13.7334378,30.272781 C13.7334378,29.9113475 14.0291738,29.6157318 14.3912149,29.6157318" id="Fill-6" fill="#E6E4DF"></path>
                                <path d="M14.3912149,31.2532775 L19.8794723,31.2532775 C20.2415135,31.2532775 20.5372495,31.5485171 20.5372495,31.9103267 C20.5372495,32.2717602 20.2415135,32.5669998 19.8794723,32.5669998 L14.3912149,32.5669998 C14.0291738,32.5669998 13.7334378,32.2717602 13.7334378,31.9103267 C13.7334378,31.5485171 14.0291738,31.2532775 14.3912149,31.2532775" id="Fill-7" fill="#E6E4DF"></path>
                                <polyline id="Fill-8" fill="#E6E4DF" points="18.3544541 33.8089521 19.4288988 32.886686 14.7815111 32.886686 15.8559558 33.8089521 18.3544541 33.8089521"></polyline>
                                <path d="M19.6711386,27.0902106 C20.2094911,27.0902106 20.5979036,26.6012787 20.5979036,26.0841393 C20.5979036,24.6812809 20.9460056,23.6451214 21.8806821,22.5999355 C22.4525639,21.960187 23.0794489,21.4445519 23.5368037,20.7002472 C24.1855392,19.6456587 24.3445209,18.3819579 24.3445209,17.166398 C24.3445209,13.1624221 21.2357139,9.70266495 17.1549338,9.70266495 C13.0745304,9.70266495 9.9657234,13.1624221 9.9657234,17.166398 C9.9657234,18.3819579 10.124705,19.6456587 10.7730639,20.7002472 C11.2304186,21.4441758 11.8573036,21.960187 12.4295622,22.5999355 C13.3638619,23.6451214 13.7119639,24.6812809 13.7119639,26.0841393 C13.7119639,26.6012787 14.1003764,27.0902106 14.638729,27.0902106 L19.6711386,27.0902106 Z" id="Fill-9" fill="#FBC02D"></path>
                                <path d="M20.7018821,16.8978616 C20.7018821,16.8978616 23.4878283,16.8523533 23.3205585,16.843703 C23.152912,16.8350527 23.5624216,14.8661616 21.8697568,12.7622502 C20.177092,10.6579626 17.2389454,10.9768966 17.2389454,10.9768966 C20.5282079,13.2188373 20.7018821,16.8978616 20.7018821,16.8978616 Z" id="Fill-10" fill="#E6E4DF"></path>
                                <path d="M17.8372061,0.504352031 L17.8372061,7.42236192 C17.8372061,7.55399742 17.6304914,7.66156243 17.3766313,7.66156243 C17.1227711,7.66156243 16.9153311,7.55399742 16.9153311,7.42236192 L16.9153311,0.504352031 C16.9153311,0.372716527 17.1227711,0.265527617 17.3766313,0.265527617 C17.6304914,0.265527617 17.8372061,0.372716527 17.8372061,0.504352031 Z" id="Fill-11" fill="#E6E4DF"></path>
                                <path d="M25.6570613,2.84295078 L22.1922409,8.83387062 C22.1259358,8.94782936 21.9790096,8.98732001 21.8648593,8.92150226 C21.7507089,8.8556845 21.7111519,8.70862884 21.7770803,8.59504621 L25.2422774,2.60375027 C25.3078291,2.48941543 25.455132,2.45030088 25.5692823,2.51611863 C25.6830559,2.58193639 25.7229897,2.72861595 25.6570613,2.84295078 Z" id="Fill-12" fill="#E6E4DF"></path>
                                <path d="M31.6411004,8.99220933 L25.6401083,12.4508382 C25.5255812,12.517032 25.3790318,12.4775414 25.3127267,12.3635826 C25.2467982,12.2496239 25.2863553,12.1029443 25.4005056,12.0367505 L31.4014977,8.57812164 C31.5160248,8.51192779 31.6629509,8.55141844 31.7288794,8.66537718 C31.7948078,8.77933591 31.7556275,8.92639158 31.6411004,8.99220933 Z" id="Fill-13" fill="#E6E4DF"></path>
                                <path d="M33.7440282,17.7486685 L26.8143874,17.7486685 C26.6825306,17.7486685 26.5751615,17.5420286 26.5751615,17.2875354 C26.5751615,17.0337672 26.6825306,16.8264023 26.8143874,16.8264023 L33.7440282,16.8264023 C33.8762618,16.8264023 33.9836309,17.0337672 33.9836309,17.2875354 C33.9836309,17.5420286 33.8762618,17.7486685 33.7440282,17.7486685 Z" id="Fill-14" fill="#E6E4DF"></path>
                                <path d="M31.4014977,25.553084 L25.4005056,22.0944552 C25.2863553,22.0286374 25.2467982,21.8819579 25.3127267,21.767623 C25.3790318,21.6540404 25.5255812,21.6145498 25.6401083,21.6803675 L31.6411004,25.1393724 C31.7556275,25.2051902 31.7948078,25.3518698 31.7288794,25.4658285 C31.6629509,25.5797872 31.5160248,25.6192779 31.4014977,25.553084 Z" id="Fill-15" fill="#E6E4DF"></path>
                                <path d="M9.06796685,2.60375027 L12.5324105,8.59504621 C12.5983389,8.70900494 12.5591586,8.8556845 12.4450083,8.92150226 C12.330858,8.98732001 12.1835551,8.94820546 12.1176266,8.83387062 L8.65280624,2.84295078 C8.58725457,2.72861595 8.62643488,2.58193639 8.74058521,2.51611863 C8.85473554,2.45030088 9.00166171,2.48979153 9.06796685,2.60375027 Z" id="Fill-16" fill="#E6E4DF"></path>
                                <path d="M2.90799311,8.57812164 L8.90936193,12.0367505 C9.02351226,12.1029443 9.06269257,12.2496239 8.99676417,12.3635826 C8.93121249,12.4775414 8.78428632,12.517032 8.66975926,12.4512143 L2.66876717,8.99220933 C2.5542401,8.92639158 2.51505979,8.77933591 2.5809882,8.66575328 C2.64691661,8.55141844 2.79384278,8.51230389 2.90799311,8.57812164 Z" id="Fill-17" fill="#E6E4DF"></path>
                                <path d="M0.56583931,16.8267784 L7.49548013,16.8267784 C7.62733694,16.8267784 7.7350828,17.0335808 7.7350828,17.2875487 C7.7350828,17.5422422 7.62733694,17.7490446 7.49548013,17.7490446 L0.56583931,17.7490446 C0.433605759,17.7490446 0.326236637,17.5422422 0.326236637,17.2875487 C0.326236637,17.0335808 0.433605759,16.8267784 0.56583931,16.8267784 Z" id="Fill-18" fill="#E6E4DF"></path>
                                <path d="M2.66876717,25.1393724 L8.66975926,21.6803675 C8.78428632,21.6145498 8.93121249,21.6540404 8.99676417,21.767623 C9.06269257,21.8819579 9.02351226,22.0286374 8.90936193,22.0944552 L2.90799311,25.5534601 C2.79384278,25.6192779 2.64691661,25.5797872 2.5809882,25.4658285 C2.51505979,25.3518698 2.5542401,25.2051902 2.66876717,25.1393724 Z" id="Fill-19" fill="#E6E4DF"></path>
                            </g>
                            <path d="M117.737582,51.9625887 L117.737582,35.0248227 C117.737582,31.9074468 115.891754,29.3789007 113.616212,29.3789007 L91.7134901,29.3789007 C89.4378188,29.3789007 87.5919907,31.9074468 87.5919907,35.0248227 L87.5919907,45.6109929 C86.1143963,47.8828014 84.6368019,50.1547872 83.1590781,52.4265957 C84.6368019,52.2718085 86.1143963,52.1171986 87.5919907,51.9625887 C87.5919907,55.0799645 89.4378188,57.6085106 91.7134901,57.6085106 L113.616212,57.6085106 C115.891754,57.6085106 117.737582,55.0799645 117.737582,51.9625887" id="Fill-20" fill="#E91E63"></path>
                            <path d="M0.849774896,51.9625887 L0.849774896,35.0248227 C0.849774896,31.9074468 2.70453116,29.3789007 4.99120983,29.3789007 L26.9998743,29.3789007 C29.286553,29.3789007 31.1413092,31.9074468 31.1413092,35.0248227 L31.1413092,45.6109929 C32.5702558,47.7700355 33.9993324,49.929078 35.428279,52.0881206 C33.9993324,52.0462766 32.5702558,52.0044326 31.1413092,51.9625887 C31.1413092,55.0799645 29.286553,57.6085106 26.9998743,57.6085106 L4.99120983,57.6085106 C2.70453116,57.6085106 0.849774896,55.0799645 0.849774896,51.9625887" id="Fill-21" fill="#E91E63"></path>
                            <path d="M117.737582,85.6840426 L117.737582,68.7462766 C117.737582,65.6289007 115.891754,63.1003546 113.616212,63.1003546 L91.7134901,63.1003546 C89.4378188,63.1003546 87.5919907,65.6289007 87.5919907,68.7462766 C86.2660905,68.6406028 84.9401903,68.5352837 83.6142901,68.4296099 C84.9401903,70.652305 86.2660905,72.875 87.5919907,75.0978723 L87.5919907,85.6840426 C87.5919907,88.8012411 89.4378188,91.3299645 91.7134901,91.3299645 L113.616212,91.3299645 C115.891754,91.3299645 117.737582,88.8012411 117.737582,85.6840426" id="Fill-22" fill="#E91E63"></path>
                            <path d="M0.849774896,85.6840426 L0.849774896,68.7462766 C0.849774896,65.6289007 2.70453116,63.1003546 4.99120983,63.1003546 L26.9998743,63.1003546 C29.286553,63.1003546 31.1413092,65.6289007 31.1413092,68.7462766 C32.4630881,68.5147163 33.7848669,68.2833333 35.1065157,68.051773 C33.7848669,70.4003546 32.4630881,72.7492908 31.1413092,75.0978723 L31.1413092,85.6840426 C31.1413092,88.8012411 29.286553,91.3299645 26.9998743,91.3299645 L4.99120983,91.3299645 C2.70453116,91.3299645 0.849774896,88.8012411 0.849774896,85.6840426" id="Fill-23" fill="#E91E63"></path>
                        </g>
                    </g>
                </g>
            </g>
        </g>
    </g>
</svg>