<?xml version="1.0" encoding="UTF-8"?>
<svg width="118px" height="88px" viewBox="0 0 118 88" version="1.1" xmlns="http://www.w3.org/2000/svg" xmlns:xlink="http://www.w3.org/1999/xlink">
    <!-- Generator: Sketch 43.1 (39012) - http://www.bohemiancoding.com/sketch -->
    <title>Group 4</title>
    <desc>Created with Sketch.</desc>
    <defs>
        <polygon id="path-1" points="0.020078008 39.4000791 0.020078008 0 38.4683545 1.90217104e-14 38.4683545 39.4000791 0.020078008 39.4000791"></polygon>
    </defs>
    <g id="Layouts" stroke="none" stroke-width="1" fill="none" fill-rule="evenodd">
        <g id="3---Index" transform="translate(-40.000000, -181.000000)">
            <g id="Interações" transform="translate(17.000000, 93.000000)">
                <g id="Group-4" transform="translate(23.000000, 88.000000)">
                    <g id="Group" transform="translate(76.389493, 15.148173)">
                        <polygon id="Fill-151" fill="#120908" points="1.5058506 44.0223712 40.8644351 44.0223712 40.8644351 19.8457724 1.5058506 19.8457724"></polygon>
                        <path d="M39.3977367,59.4422814 C39.3977367,66.5622776 33.6253093,72.3343703 26.5053131,72.3343703 L16.3957014,72.3343703 C9.27537045,72.3343703 3.50294314,66.5622776 3.50294314,59.4422814 L3.50294314,58.5307398 C3.50294314,51.4107435 9.27537045,45.6386508 16.3957014,45.6386508 L26.5053131,45.6386508 C33.6253093,45.6386508 39.3977367,51.4107435 39.3977367,58.5307398 L39.3977367,59.4422814" id="Fill-152" fill="#131615"></path>
                        <path d="M27.4379365,48.2973137 C27.4406136,52.2951798 21.4570326,54.3006381 21.4570326,54.3006381 C21.4570326,54.3006381 15.4660896,52.3042149 15.4637472,48.3060142 C15.4604008,44.3081482 18.0327283,43.2500371 21.4453204,43.2480293 C24.8575779,43.2453523 27.4345902,44.299113 27.4379365,48.2973137" id="Fill-153" fill="#DBA07C"></path>
                        <path d="M26.5548388,47.2318408 C26.5548388,50.0507931 24.2692922,52.3363397 21.4503399,52.3363397 C18.6313876,52.3363397 16.345841,50.0507931 16.345841,47.2318408 L16.345841,39.2638833 C16.345841,36.4449309 18.6313876,34.1593844 21.4503399,34.1593844 C24.2692922,34.1593844 26.5548388,36.4449309 26.5548388,39.2638833 L26.5548388,47.2318408" id="Fill-154" fill="#F1AD85"></path>
                        <path d="M21.4503399,34.1593844 C18.6313876,34.1593844 16.345841,36.4449309 16.345841,39.2638833 L16.345841,43.587013 C17.8178936,44.1053603 19.5693652,44.4071997 21.4503399,44.4071997 C23.3319839,44.4071997 25.0831208,44.1053603 26.5548388,43.587013 L26.5548388,39.2638833 C26.5548388,36.4449309 24.2692922,34.1593844 21.4503399,34.1593844" id="Fill-155" fill="#DBA07C"></path>
                        <path d="M38.803093,24.0748702 C38.803093,34.5412011 30.3174575,43.0261673 19.8517958,43.0261673 C9.38479559,43.0261673 0.900498661,34.5412011 0.900498661,24.0748702 C0.900498661,13.6082046 9.38479559,5.12323839 19.8517958,5.12323839 C30.3174575,5.12323839 38.803093,13.6082046 38.803093,24.0748702" id="Fill-156" fill="#F1AD85"></path>
                        <path d="M28.3294001,28.4789812 C28.3294001,33.6490683 24.1377813,37.8406871 18.9673596,37.8406871 C13.7969379,37.8406871 9.60632295,33.6490683 9.60632295,28.4789812 L28.3294001,28.4789812" id="Fill-157" fill="#FFFFFF"></path>
                        <path d="M9.75657338,21.9991388 C8.58401771,21.9991388 7.63298939,22.9494978 7.63298939,24.1220535 C7.63298939,25.2949438 8.58401771,26.2453028 9.75657338,26.2453028 C10.929129,26.2453028 11.8801574,25.2949438 11.8801574,24.1220535 C11.8801574,22.9494978 10.929129,21.9991388 9.75657338,21.9991388" id="Fill-158" fill="#181B1A"></path>
                        <path d="M27.0792095,21.9991388 C25.9059845,21.9991388 24.9556255,22.9494978 24.9556255,24.1220535 C24.9556255,25.2949438 25.9059845,26.2453028 27.0792095,26.2453028 C28.2514305,26.2453028 29.2017895,25.2949438 29.2017895,24.1220535 C29.2017895,22.9494978 28.2514305,21.9991388 27.0792095,21.9991388" id="Fill-159" fill="#181B1A"></path>
                        <polyline id="Fill-160" fill="#BDBEBA" points="21.4536862 51.5643403 21.4570326 54.3006381 15.734131 52.7947875 21.4536862 51.5643403"></polyline>
                        <polyline id="Fill-161" fill="#F5F4F0" points="16.345841 44.0223712 12.998837 46.0920792 14.6726736 56.8635959 21.4536862 51.5643403 16.345841 44.0223712"></polyline>
                        <polyline id="Fill-162" fill="#959995" points="21.4536862 51.5643403 21.4503399 54.3006381 27.1732415 52.7947875 21.4536862 51.5643403"></polyline>
                        <polyline id="Fill-163" fill="#EAEAE5" points="26.5615315 44.0223712 29.9085354 46.0920792 28.2346988 56.8635959 21.4536862 51.5643403 26.5615315 44.0223712"></polyline>
                        <path d="M22.3772746,13.3197505 L22.890937,20.4320503 L40.8644351,20.4320503 C40.8644351,9.1478751 31.7162254,0 20.431381,0 C9.14754047,0 0,9.1478751 0,20.4320503 L21.5721465,20.4320503 L22.3772746,13.3197505" id="Fill-164" fill="#131615"></path>
                        <polyline id="Fill-165" fill="#131615" points="33.6005465 42.4656563 40.8644351 44.0223712 40.8644351 20.4320503 33.6005465 20.4320503 33.6005465 42.4656563"></polyline>
                    </g>
                    <g id="Group-3" transform="translate(0.830958, 20.126953)">
                        <path d="M39.0329862,54.5415742 C39.0329862,61.6615705 33.2605589,67.4333286 26.1405626,67.4333286 L16.0302816,67.4333286 C8.9099507,67.4333286 3.13819266,61.6615705 3.13819266,54.5415742 L3.13819266,53.629698 C3.13819266,46.510371 8.9099507,40.7379437 16.0302816,40.7379437 L26.1405626,40.7379437 C33.2605589,40.7379437 39.0329862,46.510371 39.0329862,53.629698 L39.0329862,54.5415742" id="Fill-109" fill="#C47237"></path>
                        <path d="M27.0725168,43.3966066 C27.0758631,47.3944726 21.0916128,51.3625563 21.0916128,51.3625563 C21.0916128,51.3625563 15.1013391,47.4031731 15.0983274,43.4049724 C15.0949811,39.4071064 17.6679778,38.3496646 21.0802353,38.3469876 C24.4921581,38.3443105 27.0695051,39.3987406 27.0725168,43.3966066" id="Fill-110" fill="#DBA07C"></path>
                        <path d="M26.1897537,42.3311336 C26.1897537,45.1494167 23.9045417,47.4349633 21.0855894,47.4349633 C18.2666371,47.4349633 15.9810905,45.1494167 15.9810905,42.3311336 L15.9810905,34.3628415 C15.9810905,31.5432199 18.2666371,29.2583426 21.0855894,29.2583426 C23.9045417,29.2583426 26.1897537,31.5432199 26.1897537,34.3628415 L26.1897537,42.3311336" id="Fill-111" fill="#F1AD85"></path>
                        <polyline id="Fill-112" fill="#BDBEBA" points="18.3924593 46.6639678 21.0916128 51.3625563 15.3687113 47.8937458 18.3924593 46.6639678"></polyline>
                        <polyline id="Fill-113" fill="#F5F4F0" points="15.9810905 39.1219987 12.6340866 41.1907028 14.3079232 51.9625541 18.3924593 46.6639678 15.9810905 39.1219987"></polyline>
                        <polyline id="Fill-114" fill="#BDBEBA" points="23.784743 46.6639678 21.0855894 51.3625563 26.808491 47.8937458 23.784743 46.6639678"></polyline>
                        <polyline id="Fill-115" fill="#F5F4F0" points="26.1961117 39.1219987 29.542781 41.1907028 27.8696137 51.9625541 23.784743 46.6639678 26.1961117 39.1219987"></polyline>
                        <path d="M21.0855894,30.5332961 C18.2666371,30.5332961 15.9810905,32.818508 15.9810905,35.6371257 L15.9810905,39.9605901 C17.4524739,40.4789374 19.2042801,40.781446 21.0855894,40.781446 C22.9668988,40.781446 24.7183703,40.4789374 26.1897537,39.9605901 L26.1897537,35.6371257 C26.1897537,32.818508 23.9045417,30.5332961 21.0855894,30.5332961" id="Fill-116" fill="#DBA07C"></path>
                        <path d="M43.7633649,20.4487819 C43.7633649,22.638958 41.9881343,24.4145231 39.7969544,24.4145231 C37.6064437,24.4145231 35.8308785,22.638958 35.8308785,20.4487819 C35.8308785,18.2572673 37.6064437,16.4820368 39.7969544,16.4820368 C41.9881343,16.4820368 43.7633649,18.2572673 43.7633649,20.4487819" id="Fill-117" fill="#F1AD85"></path>
                        <mask id="mask-2" fill="white">
                            <use xlink:href="#path-1"></use>
                        </mask>
                        <g id="Clip-119"></g>
                        <path d="M38.4376732,20.4487819 C38.4376732,30.9151129 29.952707,39.4000791 19.4860414,39.4000791 C9.02004511,39.4000791 0.535413548,30.9151129 0.535413548,20.4487819 C0.535413548,9.98211633 9.02004511,1.4968155 19.4860414,1.4968155 C29.952707,1.4968155 38.4376732,9.98211633 38.4376732,20.4487819" id="Fill-118" fill="#F1AD85" mask="url(#mask-2)"></path>
                        <path d="M29.496267,9.46912323 C29.496267,9.46912323 35.7512358,17.7616752 38.4376732,17.2871649 C39.0329862,6.92423571 30.9090895,0 18.9482855,0 C9.12277759,0 1.54935295,7.43254394 0,16.8193473 C2.47227206,16.8009425 18.64745,17.9390309 29.496267,9.46912323" id="Fill-120" fill="#49291D" mask="url(#mask-2)"></path>
                        <path d="M0.535413548,21.5089008 L0.535413548,24.342577 C0.535413548,34.8099118 9.02037975,43.2945434 19.4863761,43.2945434 C29.9530417,43.2945434 38.4376732,34.8099118 38.4376732,24.342577 L38.4376732,21.5089008 L0.535413548,21.5089008" id="Fill-122" fill="#49291D" mask="url(#mask-2)"></path>
                        <path d="M36.5566985,23.8794442 C36.5566985,24.3987954 36.978002,24.8204335 37.4973532,24.8204335 C38.0167043,24.8204335 38.4376732,24.3987954 38.4376732,23.8794442 L38.4376732,16.3977092 C38.4376732,15.878358 38.0167043,15.4573891 37.4973532,15.4573891 C36.978002,15.4573891 36.5566985,15.878358 36.5566985,16.3977092 L36.5566985,23.8794442" id="Fill-123" fill="#49291D" mask="url(#mask-2)"></path>
                        <path d="M27.9639803,24.0387298 C27.9639803,29.2098207 23.7726962,33.4014395 18.6022745,33.4014395 C13.4321874,33.4014395 9.2409032,29.2098207 9.2409032,24.0387298 L27.9639803,24.0387298" id="Fill-124" fill="#FFFFFF" mask="url(#mask-2)"></path>
                        <path d="M9.39148826,16.4820368 C8.21926723,16.4820368 7.26823891,17.4330651 7.26823891,18.6056208 C7.26823891,19.7775072 8.21926723,20.7285355 9.39148826,20.7285355 C10.5640439,20.7285355 11.514403,19.7775072 11.514403,18.6056208 C11.514403,17.4330651 10.5640439,16.4820368 9.39148826,16.4820368" id="Fill-125" fill="#181B1A" mask="url(#mask-2)"></path>
                        <path d="M26.7141243,16.4820368 C25.541234,16.4820368 24.5905404,17.4330651 24.5905404,18.6056208 C24.5905404,19.7775072 25.541234,20.7285355 26.7141243,20.7285355 C27.8863454,20.7285355 28.8370391,19.7775072 28.8370391,18.6056208 C28.8370391,17.4330651 27.8863454,16.4820368 26.7141243,16.4820368" id="Fill-126" fill="#181B1A" mask="url(#mask-2)"></path>
                    </g>
                    <g id="Ícone" transform="translate(44.000000, 0.000000)">
                        <path d="M0.105419993,12.6858212 C0.105419993,11.3046211 1.21586915,10.2054369 2.61525206,10.2054369 L16.3415462,10.2054369 C17.7410287,10.2054369 18.9164705,11.3046211 18.9164705,12.6858212 L18.9164705,19.5454573 L18.9164705,27.7902227 L17.1154866,26.1838814 C17.032081,26.1087361 16.9386229,26.0399757 16.8704453,25.9778949 C16.0480341,25.2299781 15.8376291,25.1104333 14.7649015,25.1322401 C14.6185934,25.1352852 14.4443174,25.1363658 14.2320213,25.1363658 L3.11681863,24.851953 C1.71743572,24.851953 0.752811379,23.7542947 0.752811379,22.3731929" id="Path" fill="#8BC34A"></path>
                        <path d="M31.6246805,2.98644984 C31.6246805,1.66028127 30.5584753,0.604892152 29.2148483,0.604892152 L16.0354542,0.604892152 C14.6917316,0.604892152 13.5631232,1.66028127 13.5631232,2.98644984 L13.5631232,9.57277586 L13.5631232,17.4890431 L15.2923501,15.9467036 C15.3724326,15.8745524 15.462167,15.8085316 15.5276282,15.7489243 C16.3172718,15.030807 16.5192937,14.9160251 17.5492803,14.9369632 C17.689759,14.9398869 17.8570912,14.9409244 18.0609288,14.9409244 L29.2148483,14.9409244 C30.5584753,14.9409244 31.6246805,13.8668608 31.6246805,12.5407866 L31.6246805,2.98644984 Z" id="Path" fill="#8BC34A"></path>
                        <path d="M24.4529735,6.92495381 C24.4529735,7.87832579 23.7497156,8.45813408 23.2361951,8.88362736 C23.0417143,9.04479118 22.6797201,9.33885663 22.6806863,9.4486977 C22.6842,9.879566 22.3331859,10.2236538 21.8965266,10.2236538 L21.8899385,10.2236538 C21.4563535,10.2236538 21.1030556,9.89014265 21.099542,9.46144169 C21.0926025,8.616437 21.717418,8.11040515 22.2195192,7.69436149 C22.6134877,7.36787256 22.8718291,7.13813393 22.8718291,6.9279014 C22.8718291,6.50232143 22.5209907,6.1560663 22.0897775,6.1560663 C21.6583887,6.1560663 21.3074624,6.50232143 21.3074624,6.9279014 C21.3074624,7.3588564 20.9535496,7.70814581 20.5168903,7.70814581 C20.0802309,7.70814581 19.7263181,7.3588564 19.7263181,6.9279014 C19.7263181,5.64188523 20.7864754,4.59557748 22.0896019,4.59557748 C23.3928162,4.59549079 24.4529735,5.63885095 24.4529735,6.92495381 Z M21.911811,10.9439061 C21.4751516,10.9439061 21.1387192,11.2931955 21.1387192,11.7241505 L21.1387192,11.7301324 C21.1387192,12.1610873 21.4752394,12.5074292 21.911811,12.5074292 C22.3483825,12.5074292 22.7023831,12.1551055 22.7023831,11.7241505 C22.7023831,11.2931955 22.3484703,10.9439061 21.911811,10.9439061 Z M5.97659879,16.3790019 C5.53993942,16.3790019 5.1860266,16.7282913 5.1860266,17.1592463 C5.1860266,17.5902013 5.53993942,17.9394907 5.97659879,17.9394907 L6.04247981,17.9394907 C6.47913918,17.9394907 6.83305199,17.5902013 6.83305199,17.1592463 C6.83305199,16.7282913 6.47913918,16.3790019 6.04247981,16.3790019 L5.97659879,16.3790019 Z M8.7241885,16.3790019 C8.28752913,16.3790019 7.93361631,16.7282913 7.93361631,17.1592463 C7.93361631,17.5902013 8.28752913,17.9394907 8.7241885,17.9394907 L8.78998167,17.9394907 C9.22664104,17.9394907 9.58055386,17.5902013 9.58055386,17.1592463 C9.58055386,16.7282913 9.22664104,16.3790019 8.78998167,16.3790019 L8.7241885,16.3790019 Z M31.9432057,3.91685154 L31.9432057,12.6990225 C31.9432057,14.7783739 30.2538408,16.4656957 28.1469659,16.4656957 L17.8943866,16.4656957 C17.6939327,16.4656957 17.5288788,16.4645687 17.3907922,16.4617078 C17.2461174,16.4587602 17.0832596,16.4576332 17.0197503,16.4645687 C16.9536057,16.5079156 16.7914506,16.6545149 16.6351808,16.7966061 C16.5732527,16.8528704 16.5031553,16.9147698 16.4275239,16.9829111 L13.5268267,19.5922218 C13.2954526,19.800547 12.9531348,19.8544706 12.6665963,19.7298049 C12.3800578,19.6050525 12.1789011,19.3250314 12.1789011,19.0159679 L12.1789011,10.7439034 L3.89721826,10.7439034 C2.66199314,10.7439034 1.63793864,11.7428763 1.63793864,12.9617915 L1.63793864,21.7439625 C1.63793864,22.9629643 2.66208098,23.9213645 3.89721826,23.9213645 L15.3494469,23.9213645 C15.5466508,23.9213645 15.7311176,24.0107459 15.8767586,24.1420003 L18.2399545,26.2923539 L18.2399545,15.9214718 C18.2399545,15.4905168 18.6053746,15.5196906 19.0420339,15.5196906 C19.4786933,15.5196906 19.8210989,15.4905168 19.8210989,15.9214718 L19.8210989,28.0608212 C19.8210989,28.3698847 19.6419025,28.6457444 19.3552762,28.7704968 C19.2527653,28.8151442 19.1498153,28.832743 19.0420339,28.832743 C18.8484316,28.832743 18.6574645,28.7542851 18.5089247,28.6204298 L15.0429684,25.4817667 L3.89721826,25.4817667 C1.79025555,25.4817667 0.056794268,23.8233138 0.056794268,21.7438758 L0.056794268,12.9617915 C0.056794268,10.8824401 1.79025555,9.1834146 3.89721826,9.1834146 L12.1789011,9.1834146 L12.1789011,3.91685154 C12.1789011,1.8374135 13.9256264,0.167256993 16.0325891,0.167256993 L28.1470538,0.167256993 C30.2538408,0.167256993 31.9432057,1.8374135 31.9432057,3.91685154 Z M30.3620614,3.91685154 C30.3620614,2.69784969 29.3820154,1.72774581 28.1469659,1.72774581 L16.0325891,1.72774581 C14.7974519,1.72774581 13.7600455,2.69784969 13.7600455,3.91685154 L13.7600455,9.97094129 L13.7600455,17.2475006 L15.3495348,15.8297966 C15.4231458,15.7634758 15.5056289,15.7027901 15.5658002,15.6479996 C16.2916333,14.9879128 16.4773299,14.8824065 17.424084,14.9016525 C17.5532108,14.90434 17.707021,14.9052936 17.8943866,14.9052936 L28.1469659,14.9052936 C29.3820154,14.9052936 30.3620614,13.9180244 30.3620614,12.6991092 L30.3620614,3.91685154 Z" id="Shape" fill="#FFFFFF" fill-rule="nonzero"></path>
                    </g>
                </g>
            </g>
        </g>
    </g>
</svg>